<?xml version="1.0" encoding="UTF-8"?><svg id="Layer_2" xmlns="http://www.w3.org/2000/svg" xmlns:xlink="http://www.w3.org/1999/xlink" viewBox="0 0 102.23 134.24"><defs><style>.cls-1{fill:url(#linear-gradient);}.cls-2{fill:url(#linear-gradient-3);}.cls-3{fill:url(#linear-gradient-4);}.cls-4{fill:url(#linear-gradient-2);}.cls-5{fill:url(#linear-gradient-6);}.cls-6{fill:url(#linear-gradient-5);}</style><linearGradient id="linear-gradient" x1="-45.54" y1="33.4" x2="89.81" y2="2.05" gradientTransform="matrix(1, 0, 0, 1, 0, 0)" gradientUnits="userSpaceOnUse"><stop offset="0" stop-color="#fff000"/><stop offset="1" stop-color="#ef5a28"/></linearGradient><linearGradient id="linear-gradient-2" x1="-40.36" y1="55.77" x2="94.99" y2="24.42" xlink:href="#linear-gradient"/><linearGradient id="linear-gradient-3" x1="-36.73" y1="70.91" x2="86.18" y2="50.01" xlink:href="#linear-gradient"/><linearGradient id="linear-gradient-4" x1="-32.83" y1="93.82" x2="90.08" y2="72.92" xlink:href="#linear-gradient"/><linearGradient id="linear-gradient-5" x1="-41.11" y1="117.11" x2="71.35" y2="97.2" xlink:href="#linear-gradient"/><linearGradient id="linear-gradient-6" x1="-37.07" y1="139.97" x2="75.4" y2="120.06" xlink:href="#linear-gradient"/></defs><g id="Layer_1-2"><g><polygon class="cls-1" points="102.23 16.37 0 10.71 0 5.65 102.23 0 102.23 16.37"/><polygon class="cls-4" points="102.23 39.94 0 34.29 0 29.23 102.23 23.57 102.23 39.94"/><polygon class="cls-2" points="76.59 63.5 0 57.86 0 52.81 76.59 47.17 76.59 63.5"/><polygon class="cls-3" points="76.59 87.07 0 81.43 0 76.38 76.59 70.74 76.59 87.07"/><polygon class="cls-6" points="51.12 110.67 0 105.01 0 99.95 51.12 94.3 51.12 110.67"/><polygon class="cls-5" points="51.12 134.24 0 128.59 0 123.53 51.12 117.87 51.12 134.24"/></g></g></svg>